#N canvas -6 63 1680 952 12;
#X obj 324 323 osc~;
#X obj 304 429 dac~;
#X obj 297 16 r distance;
#X obj 302 75 + 1;
#X obj 305 125 /;
#X msg 301 97 1 \$1;
#X obj 456 21 r volume;
#X obj 647 27 r scene;
#X obj 449 149 f 0;
#X obj 491 80 symbol;
#X msg 524 149 0, f 2;
#X obj 491 52 t b;
#X obj 304 403 *~;
#X obj 448 257 line~;
#X obj 305 178 pow;
#X msg 305 153 \$1 1.5;
#X obj 303 379 *~;
#X msg 378 154 \$1 2;
#X obj 378 179 pow;
#X obj 491 104 select playing menu;
#X obj 307 258 line~;
#X obj 378 258 line~;
#X obj 186 194 r badness;
#X msg 307 233 \$1 8.3;
#X msg 378 232 \$1 8.3;
#X msg 448 232 \$1 8.3;
#X obj 164 146 r dug_object;
#X obj 279 323 osc~;
#X obj 279 356 *~;
#X obj 214 243 line~;
#X msg 214 218 \$1 8.3;
#X obj 279 295 *~;
#X obj 321 46 * 0.3;
#X obj 242 266 +~ 1;
#X obj 306 206 * 440;
#X connect 0 0 16 0;
#X connect 2 0 32 0;
#X connect 3 0 5 0;
#X connect 4 0 17 0;
#X connect 4 0 15 0;
#X connect 5 0 4 0;
#X connect 6 0 8 1;
#X connect 6 0 11 0;
#X connect 7 0 9 0;
#X connect 8 0 25 0;
#X connect 9 0 19 0;
#X connect 10 0 25 0;
#X connect 11 0 9 0;
#X connect 12 0 1 0;
#X connect 12 0 1 1;
#X connect 13 0 12 1;
#X connect 14 0 34 0;
#X connect 15 0 14 0;
#X connect 16 0 12 0;
#X connect 17 0 18 0;
#X connect 18 0 24 0;
#X connect 19 0 8 0;
#X connect 19 1 10 0;
#X connect 20 0 0 0;
#X connect 20 0 31 0;
#X connect 21 0 16 1;
#X connect 22 0 30 0;
#X connect 23 0 20 0;
#X connect 24 0 21 0;
#X connect 25 0 13 0;
#X connect 27 0 28 0;
#X connect 28 0 16 0;
#X connect 29 0 28 1;
#X connect 29 0 33 0;
#X connect 30 0 29 0;
#X connect 31 0 27 0;
#X connect 32 0 3 0;
#X connect 33 0 31 1;
#X connect 34 0 23 0;
